<svg xmlns="http://www.w3.org/2000/svg" version="1.1" xmlns:xlink="http://www.w3.org/1999/xlink" xmlns:svgjs="http://svgjs.com/svgjs" width="212.7495" height="195.2807"><svg viewBox="0.0024 -0.021 212.7495 195.2807" width="212.7495" height="195.2807" xmlns="http://www.w3.org/2000/svg">
  <defs>
    <style type="text/css">
	.st0{fill:#DD1239;}
	.st1{fill:#FFFFFF;}
</style>
  </defs>
  <path class="st0" d="M7.1,134.18c0,0,6.13,66.8,78.98,45.2c0,0,30.57-11.26,50.1-31.95l11.26,6.89c0,0-2.99,7.12,14.02,17.7
			l27.35,19.76c0,0,10.34,9.19,21.14-2.3c0,0,8.27-9.19-3.68-20.45l-34.47-25.28c0,0-7.35-4.83-14.25-2.76l-8.73-6.82
			c0,0,25.24-29.25,28.23-73.74c0.76-11.31-1.23-22.7-6.39-32.8c-8.33-16.29-26.84-34.26-67.65-25.23c0,0,77.83-8.37,56.69,77.17
			c0,0-17.77,72.67-87.64,89.52C72.06,169.12,20.58,182.6,7.1,134.18z" transform="matrix(1, 0, 0, 1, 3.552713678800501e-15, 0)"></path>
  <path class="st0" d="M184.45,60.34v12.41c0,0,17.47,10.57,17.24,31.26c0,0-0.69,27.81-25.97,32.86l10.11,8.27
			c0,0,27.18-12.41,26.92-42.4C212.74,102.74,213.63,75.27,184.45,60.34z" transform="matrix(1, 0, 0, 1, 3.552713678800501e-15, 0)"></path>
  <path d="M154.11,45.86c0,0-1.84-13.56-8.96-22.98c0,0-50.41-37.31-93.92,18.16c0,0-44.9-0.83-50.88,48.91
			c-0.72,5.97-0.33,12.04,1.25,17.84c3.84,14.07,15.39,38.63,49.32,40.81h51.17l13.18-10.73H57.35c0,0-31.25,2.31-42.65-26.45
			c-4.03-10.17-4.68-21.45-1.28-31.85c4.1-12.54,15.1-27.63,44.23-27.81c0,0,9.81-27.27,48.11-30.64
			C105.77,21.11,132.58,17.89,154.11,45.86z" transform="matrix(1, 0, 0, 1, 3.552713678800501e-15, 0)"></path>
  <path d="M129.52,100.85c-0.27,0.04-0.55,0.1-0.82,0.15c-2.98,0.65-5.97,1.29-8.94,1.97c-0.61,0.14-1.04,0.07-1.48-0.4
				c-0.93-0.99-1.89-1.94-2.87-2.87c-0.45-0.43-0.47-0.76-0.01-1.19c0.94-0.88,1.82-1.81,2.75-2.7c1.07-1.01,1.08-1.01,0.08-2.02
				c-5.81-5.82-11.63-11.63-17.44-17.45c-5.03-5.03-10.07-10.05-15.08-15.1c-0.66-0.66-1.08-0.75-1.74,0
				c-0.91,1.04-1.97,1.95-2.93,2.95c-0.41,0.43-0.71,0.43-1.11,0.01c-0.87-0.9-1.74-1.8-2.66-2.64c-0.61-0.56-0.77-1.14-0.59-1.95
				c0.65-2.84,1.26-5.69,1.87-8.54c0.12-0.54,0.26-1.1,0.24-1.64c-0.05-1.14-0.97-2.01-2.09-2.08c-1.33-0.09-2.16,0.54-2.49,1.99
				c-0.89,3.99-1.74,8-2.63,11.99c-0.15,0.67,0.05,1.12,0.51,1.57c1.51,1.48,2.98,3,4.5,4.48c0.49,0.47,0.49,0.8,0,1.27
				c-1.08,1.03-2.14,2.08-3.16,3.17c-0.51,0.54-0.87,0.5-1.37-0.01c-1.62-1.66-3.28-3.29-4.91-4.95c-0.48-0.49-0.99-0.79-1.72-0.81
				c-4.68-0.16-9.36-0.37-14.04-0.38c-1.44,0-2.4,0.85-2.48,2.12c-0.08,1.29,0.84,2.32,2.33,2.39c3.98,0.17,7.97,0.27,11.96,0.39
				c0.56,0.02,1.09,0.04,1.53,0.49c1.36,1.38,2.73,2.76,4.13,4.1c0.51,0.49,0.44,0.81-0.03,1.27c-1.66,1.62-3.31,3.26-4.92,4.93
				c-0.52,0.54-0.82,0.38-1.26-0.07c-1.65-1.68-3.35-3.32-4.99-5.02c-0.61-0.63-1.02-0.59-1.61,0.02c-1.66,1.72-3.39,3.38-5.06,5.1
				c-0.52,0.54-1.07,0.77-1.83,0.76c-3.33-0.03-6.66-0.02-9.99-0.01c-1.67,0.01-2.63,0.87-2.64,2.29c-0.01,1.36,1.04,2.32,2.64,2.33
				c4.02,0.02,8.05,0,12.07,0.02c0.6,0,1.06-0.18,1.48-0.61c1.19-1.22,2.42-2.39,3.6-3.61c0.41-0.43,0.7-0.42,1.11,0.01
				c0.81,0.86,1.64,1.69,2.5,2.5c0.41,0.39,0.39,0.71,0.14,1.18c-3.85,6.96-3.98,14.33-2.48,21.88c0,0,0,0,0,0
				c0.36,3.89,1.54,6.75,2.44,8.43c0.08,0.2,0.15,0.33,0.22,0.4c0.5,0.87,0.86,1.33,0.86,1.33c0.36,0.37,0.88,0.73,1.51,1.06
				c0.11,0.12,0.34,0.22,0.71,0.35c0.03,0.01,0.05,0.02,0.08,0.03c3.71,1.64,9.77,2.6,9.77,2.6c7.02,1.11,13.84,0.79,20.19-2.84
				c0.5-0.29,0.8-0.19,1.17,0.19c0.82,0.85,1.65,1.69,2.5,2.5c0.47,0.45,0.41,0.75-0.05,1.18c-1.18,1.13-2.29,2.32-3.46,3.45
				c-0.46,0.44-0.65,0.92-0.64,1.56c0.04,2.01,0.01,4.02,0.01,6.04c0,0,0.01,0,0.01,0c0,2.12-0.02,4.23,0.01,6.35
				c0.02,1.36,0.81,2.2,2.06,2.28c1.44,0.09,2.42-0.81,2.43-2.34c0.02-3.26,0.05-6.52-0.01-9.78c-0.02-1.06,0.28-1.82,1.06-2.55
				c1.68-1.6,3.25-3.32,4.93-4.93c0.65-0.62,0.48-0.97-0.06-1.5c-1.67-1.62-3.28-3.3-4.95-4.91c-0.54-0.53-0.59-0.93-0.05-1.47
				c1.64-1.6,3.27-3.21,4.87-4.84c0.47-0.48,0.77-0.47,1.25,0.04c1.29,1.36,2.64,2.66,3.99,3.95c0.42,0.4,0.52,0.85,0.54,1.4
				c0.12,3.99,0.26,7.97,0.38,11.96c0.05,1.6,0.98,2.65,2.33,2.63c1.4-0.02,2.32-1.15,2.27-2.8c-0.13-4.51-0.26-9.01-0.36-13.52
				c-0.02-0.74-0.24-1.31-0.78-1.84c-1.74-1.69-3.44-3.43-5.17-5.13c-0.4-0.39-0.51-0.67-0.06-1.11c1.15-1.11,2.28-2.24,3.38-3.39
				c0.46-0.48,0.78-0.39,1.19,0.04c0.86,0.9,1.89,1.68,2.62,2.68c1.6,2.2,3.49,2.64,6.09,1.85c3.11-0.94,6.36-1.43,9.53-2.16
				c1.39-0.32,2.08-1.42,1.83-2.7C131.99,101.34,130.95,100.66,129.52,100.85z" transform="matrix(1, 0, 0, 1, 3.552713678800501e-15, 0)"></path>
  <path d="M146.03,61.78c-3.76-1.41-7.65-1.97-11.65-1.62c-3.74,0.33-7.27,1.41-10.61,3.11c-0.74,0.38-1.02,0.22-1.23-0.55
				c-0.27-1-0.71-1.96-0.99-2.96c-0.26-0.93-0.82-1.46-1.73-1.73c-1-0.29-1.96-0.7-2.96-0.98c-0.76-0.21-0.95-0.51-0.55-1.24
				c0.49-0.91,0.92-1.87,1.3-2.84c2.45-6.4,2.61-12.84,0.25-19.31c-0.23-0.64-0.57-1.19-1.23-1.46c-0.82-0.34-1.57-0.22-2.22,0.37
				c-0.84,0.77-0.79,1.71-0.45,2.68c2.37,6.84,1.57,13.37-1.9,19.66c-0.36,0.66-0.8,0.9-1.5,0.75c-1.13-0.23-2.28-0.18-3.42-0.21
				c-5.55-0.06-10.42,1.57-14.35,5.67c-0.69,0.72-0.7,1.13,0.01,1.83c4.22,4.16,8.4,8.37,12.6,12.56c3.8,3.8,7.61,7.59,11.39,11.41
				c0.6,0.61,0.99,0.62,1.6,0.01c1.43-1.43,2.7-2.97,3.63-4.79c2.09-4.1,2.54-8.45,1.95-12.95c-0.08-0.66-0.14-1.21,0.58-1.59
				c1.9-1.01,3.85-1.91,5.93-2.48c4.76-1.3,9.46-1.07,14.11,0.58c1.34,0.48,2.45-0.04,2.88-1.23
				C147.86,63.36,147.31,62.26,146.03,61.78z" transform="matrix(1, 0, 0, 1, 3.552713678800501e-15, 0)"></path>
</svg><style>@media (prefers-color-scheme: light) { :root { filter: none; } }
@media (prefers-color-scheme: dark) { :root { filter: contrast(0.8333333333333334) brightness(1.7); } }
</style></svg>