<?xml version="1.0" encoding="utf-8"?>
<!-- Generator: Adobe Illustrator 27.3.1, SVG Export Plug-In . SVG Version: 6.00 Build 0)  -->
<svg version="1.1" id="Layer_1" xmlns="http://www.w3.org/2000/svg" xmlns:xlink="http://www.w3.org/1999/xlink" x="0px" y="0px"
	 viewBox="0 0 669.83 195.28" style="enable-background:new 0 0 669.83 195.28;" xml:space="preserve">
<style type="text/css">
	.st0{fill:#DD1239;}
	.st1{fill:#FFFFFF;}
</style>
<g>
	<path d="M264.2,87.05h-27.39c-1.17,0-1.75-0.58-1.75-1.75V35.27c0-1.17,0.58-1.75,1.75-1.75h7.08c1.17,0,1.75,0.58,1.75,1.75v41.63
		c0,0.61,0.33,0.92,1,0.92h17.57c1.11,0,1.66,0.61,1.66,1.83v5.66C265.86,86.47,265.31,87.05,264.2,87.05z"/>
	<path d="M278.02,87.05h-7.99c-1,0-1.33-0.58-1-1.75l13.16-50.04c0.39-1.17,1.22-1.75,2.5-1.75h11.07c1.39,0,2.22,0.58,2.5,1.75
		l13.15,50.04c0.33,1.17,0,1.75-1,1.75h-7.99c-0.61,0-1.03-0.12-1.25-0.37c-0.22-0.25-0.39-0.71-0.5-1.37l-2.33-9.16H282.1
		l-2.33,9.16c-0.11,0.67-0.29,1.13-0.54,1.37C278.98,86.93,278.57,87.05,278.02,87.05z M290.09,43.59l-5.99,24.06h12.32l-5.99-24.06
		H290.09z"/>
	<path d="M354.37,33.52h12.32c1.17,0,1.75,0.58,1.75,1.75V85.3c0,1.17-0.58,1.75-1.75,1.75h-6.83c-1.17,0-1.75-0.58-1.75-1.75V45.84
		h-0.33l-8.49,27.89c-0.33,1.11-1.03,1.66-2.08,1.66h-6.99c-1.05,0-1.75-0.55-2.08-1.66l-8.66-27.98h-0.33V85.3
		c0,0.67-0.11,1.13-0.33,1.37c-0.22,0.25-0.7,0.37-1.42,0.37h-6.83c-1.17,0-1.75-0.58-1.75-1.75V35.27c0-1.17,0.58-1.75,1.75-1.75
		h12.41c0.78,0,1.3,0.39,1.58,1.17l8.83,29.39h0.5l8.91-29.39C352.95,33.91,353.48,33.52,354.37,33.52z"/>
	<path d="M379.26,85.3V35.27c0-1.17,0.58-1.75,1.75-1.75h19.98c4.38,0,7.77,1.17,10.16,3.5c2.39,2.33,3.58,5.66,3.58,9.99v3.41
		c0,4.72-2.19,7.77-6.58,9.16c2.22,0.33,4,1.24,5.33,2.71c1.33,1.47,2,3.57,2,6.28v5c0,4.33-1.19,7.66-3.58,9.99
		c-2.39,2.33-5.75,3.5-10.07,3.5h-20.81C379.84,87.05,379.26,86.47,379.26,85.3z M390.75,55.25h8.49c1.78,0,3.08-0.37,3.91-1.12
		c0.83-0.75,1.25-1.98,1.25-3.71v-3.25c0-1.72-0.4-2.96-1.21-3.7c-0.81-0.75-2.1-1.13-3.87-1.13h-8.58c-0.61,0-0.92,0.31-0.92,0.92
		v11.07C389.84,54.94,390.14,55.25,390.75,55.25z M390.75,78.23h9.32c1.83,0,3.15-0.37,3.95-1.12c0.8-0.75,1.21-1.98,1.21-3.71
		v-4.83c0-1.72-0.42-2.94-1.25-3.66c-0.83-0.72-2.19-1.08-4.08-1.08h-9.16c-0.61,0-0.92,0.31-0.92,0.92v12.57
		C389.84,77.92,390.14,78.23,390.75,78.23z"/>
	<path d="M425.47,85.3V35.27c0-1.17,0.58-1.75,1.75-1.75h20.56c4.33,0,7.7,1.18,10.12,3.54c2.42,2.36,3.62,5.7,3.62,10.03v26.39
		c0,4.33-1.21,7.67-3.62,10.03c-2.42,2.36-5.79,3.54-10.12,3.54h-20.56C426.05,87.05,425.47,86.47,425.47,85.3z M436.96,77.89h9.08
		c1.78,0,3.04-0.38,3.79-1.13c0.75-0.75,1.12-2.01,1.12-3.79V47.59c0-1.78-0.37-3.04-1.12-3.79c-0.75-0.75-2.01-1.12-3.79-1.12
		h-9.08c-0.61,0-0.92,0.31-0.92,0.92v33.39C436.04,77.59,436.35,77.89,436.96,77.89z"/>
	<path d="M477.09,87.05h-7.99c-1,0-1.33-0.58-1-1.75l13.15-50.04c0.39-1.17,1.22-1.75,2.5-1.75h11.07c1.39,0,2.22,0.58,2.5,1.75
		l13.15,50.04c0.33,1.17,0,1.75-1,1.75h-7.99c-0.61,0-1.03-0.12-1.25-0.37c-0.22-0.25-0.39-0.71-0.5-1.37l-2.33-9.16h-16.24
		l-2.33,9.16c-0.11,0.67-0.29,1.13-0.54,1.37C478.05,86.93,477.64,87.05,477.09,87.05z M489.16,43.59l-5.99,24.06h12.32l-5.99-24.06
		H489.16z"/>
	<path d="M565.34,87.05h-27.39c-1.17,0-1.75-0.58-1.75-1.75V35.27c0-1.17,0.58-1.75,1.75-1.75h7.08c1.17,0,1.75,0.58,1.75,1.75
		v41.63c0,0.61,0.33,0.92,1,0.92h17.57c1.11,0,1.66,0.61,1.66,1.83v5.66C567.01,86.47,566.45,87.05,565.34,87.05z"/>
	<path d="M574,50.19v35.1c0,1.17,0.58,1.75,1.75,1.75h7.07c1.17,0,1.75-0.58,1.75-1.75V41.79L574,50.19z"/>
	<path class="st0" d="M584.01,33.86L574,42.67v-7.4c0-1.17,0.58-1.75,1.75-1.75h7.07C583.33,33.52,583.74,33.63,584.01,33.86z"/>
	<path d="M617.63,87.05h-10.91c-1.17,0-1.86-0.58-2.08-1.75l-12.9-49.87c-0.39-1.28,0.17-1.92,1.66-1.92h7.83
		c1.11,0,1.78,0.58,2,1.75l8.74,40.96h0.33l8.74-40.96c0.22-1.17,0.89-1.75,2-1.75h7.83c1.39,0,1.94,0.64,1.67,1.92L619.63,85.3
		C619.35,86.47,618.68,87.05,617.63,87.05z"/>
	<path d="M668.16,87.05h-27.23c-1.17,0-1.75-0.58-1.75-1.75V35.27c0-1.17,0.58-1.75,1.75-1.75h27.23c1.11,0,1.66,0.58,1.66,1.75
		v5.66c0,1.17-0.56,1.75-1.66,1.75h-17.4c-0.67,0-1,0.31-1,0.92v10.82c0,0.61,0.33,0.92,1,0.92H665c1.17,0,1.75,0.58,1.75,1.75v5.66
		c0,1.17-0.58,1.75-1.75,1.75h-14.24c-0.67,0-1,0.31-1,0.92v11.57c0,0.61,0.33,0.92,1,0.92h17.4c1.11,0,1.66,0.58,1.66,1.75v5.66
		C669.83,86.47,669.27,87.05,668.16,87.05z"/>
	<path class="st0" d="M235.06,160.01v-50.04c0-1.17,0.58-1.75,1.75-1.75h20.56c4.33,0,7.7,1.18,10.12,3.54s3.62,5.7,3.62,10.03
		v26.39c0,4.33-1.21,7.67-3.62,10.03c-2.41,2.36-5.79,3.54-10.12,3.54h-20.56C235.64,161.76,235.06,161.17,235.06,160.01z
		 M246.55,152.6h9.08c1.78,0,3.04-0.38,3.79-1.13c0.75-0.75,1.12-2.01,1.12-3.79v-25.39c0-1.78-0.37-3.04-1.12-3.79
		c-0.75-0.75-2.01-1.12-3.79-1.12h-9.08c-0.61,0-0.92,0.31-0.92,0.92v33.39C245.63,152.3,245.94,152.6,246.55,152.6z"/>
	<path class="st0" d="M310.07,161.76h-27.23c-1.17,0-1.75-0.58-1.75-1.75v-50.04c0-1.17,0.58-1.75,1.75-1.75h27.23
		c1.11,0,1.67,0.58,1.67,1.75v5.66c0,1.17-0.56,1.75-1.67,1.75h-17.4c-0.67,0-1,0.31-1,0.92v10.82c0,0.61,0.33,0.92,1,0.92h14.24
		c1.17,0,1.75,0.58,1.75,1.75v5.66c0,1.17-0.58,1.75-1.75,1.75h-14.24c-0.67,0-1,0.31-1,0.92v11.57c0,0.61,0.33,0.92,1,0.92h17.4
		c1.11,0,1.67,0.58,1.67,1.75v5.66C311.74,161.17,311.18,161.76,310.07,161.76z"/>
	<path class="st0" d="M320.98,160.01v-50.04c0-1.17,0.58-1.75,1.75-1.75h19.98c4.38,0,7.77,1.17,10.16,3.5
		c2.39,2.33,3.58,5.66,3.58,9.99v3.41c0,4.72-2.19,7.77-6.58,9.16c2.22,0.33,4,1.24,5.33,2.71c1.33,1.47,2,3.57,2,6.29v5
		c0,4.33-1.19,7.66-3.58,9.99c-2.39,2.33-5.75,3.5-10.07,3.5h-20.81C321.56,161.76,320.98,161.17,320.98,160.01z M332.47,129.95
		h8.49c1.78,0,3.08-0.37,3.91-1.12c0.83-0.75,1.25-1.98,1.25-3.71v-3.25c0-1.72-0.4-2.96-1.21-3.7c-0.81-0.75-2.1-1.13-3.87-1.13
		h-8.58c-0.61,0-0.92,0.31-0.92,0.92v11.07C331.55,129.65,331.86,129.95,332.47,129.95z M332.47,152.93h9.32
		c1.83,0,3.15-0.37,3.95-1.12c0.8-0.75,1.21-1.98,1.21-3.71v-4.83c0-1.72-0.42-2.94-1.25-3.66c-0.83-0.72-2.19-1.08-4.08-1.08h-9.16
		c-0.61,0-0.92,0.31-0.92,0.92v12.57C331.55,152.63,331.86,152.93,332.47,152.93z"/>
	<path class="st0" d="M394.58,108.22h6.99c1.22,0,1.83,0.56,1.83,1.67v38.3c0,4.33-1.21,7.67-3.62,10.03
		c-2.41,2.36-5.79,3.54-10.12,3.54h-9.16c-4.39,0-7.77-1.17-10.16-3.5c-2.39-2.33-3.58-5.69-3.58-10.07v-38.22
		c0-1.17,0.58-1.75,1.75-1.75h7.08c1.17,0,1.75,0.58,1.75,1.75v37.72c0,1.78,0.37,3.04,1.12,3.79c0.75,0.75,1.98,1.13,3.71,1.13
		h5.74c1.78,0,3.04-0.38,3.79-1.13c0.75-0.75,1.12-2.01,1.12-3.79v-37.72C392.83,108.81,393.41,108.22,394.58,108.22z"/>
	<path class="st0" d="M435.54,161.76h-8.83c-4.39,0-7.77-1.17-10.16-3.5s-3.58-5.69-3.58-10.07v-26.39c0-4.38,1.19-7.74,3.58-10.08
		c2.39-2.33,5.77-3.5,10.16-3.5h8.83c4.33,0,7.69,1.18,10.07,3.54c2.39,2.36,3.58,5.7,3.58,10.03v2.5c0,1.22-0.58,1.83-1.75,1.83
		h-7.08c-1.17,0-1.75-0.61-1.75-1.83v-2c0-1.78-0.36-3.04-1.08-3.79c-0.72-0.75-1.97-1.12-3.75-1.12h-5.41
		c-1.72,0-2.96,0.37-3.71,1.12c-0.75,0.75-1.12,2.01-1.12,3.79v25.39c0,1.78,0.37,3.04,1.12,3.79c0.75,0.75,1.98,1.13,3.71,1.13
		h5.41c1.78,0,3.02-0.38,3.75-1.13c0.72-0.75,1.08-2.01,1.08-3.79v-5.24c0-0.61-0.31-0.92-0.92-0.92h-5c-1.17,0-1.75-0.58-1.75-1.75
		v-5.66c0-1.17,0.58-1.75,1.75-1.75h14.57c1.28,0,1.92,0.64,1.92,1.92v13.9c0,4.33-1.19,7.67-3.58,10.03
		C443.23,160.58,439.87,161.76,435.54,161.76z"/>
	<path class="st0" d="M480.92,161.76h-8.83c-4.39,0-7.77-1.17-10.16-3.5c-2.39-2.33-3.58-5.69-3.58-10.07v-26.39
		c0-4.38,1.19-7.74,3.58-10.08c2.39-2.33,5.77-3.5,10.16-3.5h8.83c4.33,0,7.69,1.18,10.07,3.54c2.39,2.36,3.58,5.7,3.58,10.03v2.5
		c0,1.22-0.58,1.83-1.75,1.83h-7.08c-1.17,0-1.75-0.61-1.75-1.83v-2c0-1.78-0.36-3.04-1.08-3.79c-0.72-0.75-1.97-1.12-3.75-1.12
		h-5.41c-1.72,0-2.96,0.37-3.7,1.12c-0.75,0.75-1.13,2.01-1.13,3.79v25.39c0,1.78,0.37,3.04,1.13,3.79c0.75,0.75,1.98,1.13,3.7,1.13
		h5.41c1.78,0,3.03-0.38,3.75-1.13c0.72-0.75,1.08-2.01,1.08-3.79v-5.24c0-0.61-0.31-0.92-0.92-0.92h-4.99
		c-1.17,0-1.75-0.58-1.75-1.75v-5.66c0-1.17,0.58-1.75,1.75-1.75h14.57c1.27,0,1.91,0.64,1.91,1.92v13.9c0,4.33-1.2,7.67-3.58,10.03
		C488.61,160.58,485.25,161.76,480.92,161.76z"/>
	<path class="st0" d="M533.54,161.76h-27.23c-1.17,0-1.75-0.58-1.75-1.75v-50.04c0-1.17,0.58-1.75,1.75-1.75h27.23
		c1.11,0,1.66,0.58,1.66,1.75v5.66c0,1.17-0.56,1.75-1.66,1.75h-17.4c-0.67,0-1,0.31-1,0.92v10.82c0,0.61,0.33,0.92,1,0.92h14.24
		c1.17,0,1.75,0.58,1.75,1.75v5.66c0,1.17-0.58,1.75-1.75,1.75h-14.24c-0.67,0-1,0.31-1,0.92v11.57c0,0.61,0.33,0.92,1,0.92h17.4
		c1.11,0,1.66,0.58,1.66,1.75v5.66C535.2,161.17,534.65,161.76,533.54,161.76z"/>
	<path class="st0" d="M553.27,161.76h-7.08c-1.17,0-1.75-0.58-1.75-1.75v-50.04c0-1.17,0.58-1.75,1.75-1.75h19.81
		c4.33,0,7.71,1.2,10.16,3.58c2.44,2.39,3.66,5.75,3.66,10.07v6.49c0,6.27-2.47,10.44-7.41,12.49v0.33l8.91,18.57
		c0.5,1.33,0.03,2-1.42,2h-6.74c-1,0-1.72-0.11-2.16-0.33c-0.44-0.22-0.81-0.69-1.08-1.42l-8.33-17.98h-5.58c-0.67,0-1,0.31-1,0.92
		v17.07C555.02,161.17,554.44,161.76,553.27,161.76z M555.94,133.53h8.16c1.78,0,3.08-0.37,3.91-1.12c0.83-0.75,1.25-1.96,1.25-3.62
		v-6.49c0-1.72-0.42-2.97-1.25-3.75c-0.83-0.78-2.14-1.17-3.91-1.17h-8.16c-0.61,0-0.92,0.31-0.92,0.92v14.32
		C555.02,133.23,555.32,133.53,555.94,133.53z"/>
	<g>
		<path class="st0" d="M7.1,134.18c0,0,6.13,66.8,78.98,45.2c0,0,30.57-11.26,50.1-31.95l11.26,6.89c0,0-2.99,7.12,14.02,17.7
			l27.35,19.76c0,0,10.34,9.19,21.14-2.3c0,0,8.27-9.19-3.68-20.45l-34.47-25.28c0,0-7.35-4.83-14.25-2.76l-8.73-6.82
			c0,0,25.24-29.25,28.23-73.74c0.76-11.31-1.23-22.7-6.39-32.8c-8.33-16.29-26.84-34.26-67.65-25.23c0,0,77.83-8.37,56.69,77.17
			c0,0-17.77,72.67-87.64,89.52C72.06,169.12,20.58,182.6,7.1,134.18z"/>
		<path class="st0" d="M184.45,60.34v12.41c0,0,17.47,10.57,17.24,31.26c0,0-0.69,27.81-25.97,32.86l10.11,8.27
			c0,0,27.18-12.41,26.92-42.4C212.74,102.74,213.63,75.27,184.45,60.34z"/>
	</g>
	<g>
		<path d="M154.11,45.86c0,0-1.84-13.56-8.96-22.98c0,0-50.41-37.31-93.92,18.16c0,0-44.9-0.83-50.88,48.91
			c-0.72,5.97-0.33,12.04,1.25,17.84c3.84,14.07,15.39,38.63,49.32,40.81h51.17l13.18-10.73H57.35c0,0-31.25,2.31-42.65-26.45
			c-4.03-10.17-4.68-21.45-1.28-31.85c4.1-12.54,15.1-27.63,44.23-27.81c0,0,9.81-27.27,48.11-30.64
			C105.77,21.11,132.58,17.89,154.11,45.86z"/>
		<g>
			<path d="M129.52,100.85c-0.27,0.04-0.55,0.1-0.82,0.15c-2.98,0.65-5.97,1.29-8.94,1.97c-0.61,0.14-1.04,0.07-1.48-0.4
				c-0.93-0.99-1.89-1.94-2.87-2.87c-0.45-0.43-0.47-0.76-0.01-1.19c0.94-0.88,1.82-1.81,2.75-2.7c1.07-1.01,1.08-1.01,0.08-2.02
				c-5.81-5.82-11.63-11.63-17.44-17.45c-5.03-5.03-10.07-10.05-15.08-15.1c-0.66-0.66-1.08-0.75-1.74,0
				c-0.91,1.04-1.97,1.95-2.93,2.95c-0.41,0.43-0.71,0.43-1.11,0.01c-0.87-0.9-1.74-1.8-2.66-2.64c-0.61-0.56-0.77-1.14-0.59-1.95
				c0.65-2.84,1.26-5.69,1.87-8.54c0.12-0.54,0.26-1.1,0.24-1.64c-0.05-1.14-0.97-2.01-2.09-2.08c-1.33-0.09-2.16,0.54-2.49,1.99
				c-0.89,3.99-1.74,8-2.63,11.99c-0.15,0.67,0.05,1.12,0.51,1.57c1.51,1.48,2.98,3,4.5,4.48c0.49,0.47,0.49,0.8,0,1.27
				c-1.08,1.03-2.14,2.08-3.16,3.17c-0.51,0.54-0.87,0.5-1.37-0.01c-1.62-1.66-3.28-3.29-4.91-4.95c-0.48-0.49-0.99-0.79-1.72-0.81
				c-4.68-0.16-9.36-0.37-14.04-0.38c-1.44,0-2.4,0.85-2.48,2.12c-0.08,1.29,0.84,2.32,2.33,2.39c3.98,0.17,7.97,0.27,11.96,0.39
				c0.56,0.02,1.09,0.04,1.53,0.49c1.36,1.38,2.73,2.76,4.13,4.1c0.51,0.49,0.44,0.81-0.03,1.27c-1.66,1.62-3.31,3.26-4.92,4.93
				c-0.52,0.54-0.82,0.38-1.26-0.07c-1.65-1.68-3.35-3.32-4.99-5.02c-0.61-0.63-1.02-0.59-1.61,0.02c-1.66,1.72-3.39,3.38-5.06,5.1
				c-0.52,0.54-1.07,0.77-1.83,0.76c-3.33-0.03-6.66-0.02-9.99-0.01c-1.67,0.01-2.63,0.87-2.64,2.29c-0.01,1.36,1.04,2.32,2.64,2.33
				c4.02,0.02,8.05,0,12.07,0.02c0.6,0,1.06-0.18,1.48-0.61c1.19-1.22,2.42-2.39,3.6-3.61c0.41-0.43,0.7-0.42,1.11,0.01
				c0.81,0.86,1.64,1.69,2.5,2.5c0.41,0.39,0.39,0.71,0.14,1.18c-3.85,6.96-3.98,14.33-2.48,21.88c0,0,0,0,0,0
				c0.36,3.89,1.54,6.75,2.44,8.43c0.08,0.2,0.15,0.33,0.22,0.4c0.5,0.87,0.86,1.33,0.86,1.33c0.36,0.37,0.88,0.73,1.51,1.06
				c0.11,0.12,0.34,0.22,0.71,0.35c0.03,0.01,0.05,0.02,0.08,0.03c3.71,1.64,9.77,2.6,9.77,2.6c7.02,1.11,13.84,0.79,20.19-2.84
				c0.5-0.29,0.8-0.19,1.17,0.19c0.82,0.85,1.65,1.69,2.5,2.5c0.47,0.45,0.41,0.75-0.05,1.18c-1.18,1.13-2.29,2.32-3.46,3.45
				c-0.46,0.44-0.65,0.92-0.64,1.56c0.04,2.01,0.01,4.02,0.01,6.04c0,0,0.01,0,0.01,0c0,2.12-0.02,4.23,0.01,6.35
				c0.02,1.36,0.81,2.2,2.06,2.28c1.44,0.09,2.42-0.81,2.43-2.34c0.02-3.26,0.05-6.52-0.01-9.78c-0.02-1.06,0.28-1.82,1.06-2.55
				c1.68-1.6,3.25-3.32,4.93-4.93c0.65-0.62,0.48-0.97-0.06-1.5c-1.67-1.62-3.28-3.3-4.95-4.91c-0.54-0.53-0.59-0.93-0.05-1.47
				c1.64-1.6,3.27-3.21,4.87-4.84c0.47-0.48,0.77-0.47,1.25,0.04c1.29,1.36,2.64,2.66,3.99,3.95c0.42,0.4,0.52,0.85,0.54,1.4
				c0.12,3.99,0.26,7.97,0.38,11.96c0.05,1.6,0.98,2.65,2.33,2.63c1.4-0.02,2.32-1.15,2.27-2.8c-0.13-4.51-0.26-9.01-0.36-13.52
				c-0.02-0.74-0.24-1.31-0.78-1.84c-1.74-1.69-3.44-3.43-5.17-5.13c-0.4-0.39-0.51-0.67-0.06-1.11c1.15-1.11,2.28-2.24,3.38-3.39
				c0.46-0.48,0.78-0.39,1.19,0.04c0.86,0.9,1.89,1.68,2.62,2.68c1.6,2.2,3.49,2.64,6.09,1.85c3.11-0.94,6.36-1.43,9.53-2.16
				c1.39-0.32,2.08-1.42,1.83-2.7C131.99,101.34,130.95,100.66,129.52,100.85z"/>
			<path d="M146.03,61.78c-3.76-1.41-7.65-1.97-11.65-1.62c-3.74,0.33-7.27,1.41-10.61,3.11c-0.74,0.38-1.02,0.22-1.23-0.55
				c-0.27-1-0.71-1.96-0.99-2.96c-0.26-0.93-0.82-1.46-1.73-1.73c-1-0.29-1.96-0.7-2.96-0.98c-0.76-0.21-0.95-0.51-0.55-1.24
				c0.49-0.91,0.92-1.87,1.3-2.84c2.45-6.4,2.61-12.84,0.25-19.31c-0.23-0.64-0.57-1.19-1.23-1.46c-0.82-0.34-1.57-0.22-2.22,0.37
				c-0.84,0.77-0.79,1.71-0.45,2.68c2.37,6.84,1.57,13.37-1.9,19.66c-0.36,0.66-0.8,0.9-1.5,0.75c-1.13-0.23-2.28-0.18-3.42-0.21
				c-5.55-0.06-10.42,1.57-14.35,5.67c-0.69,0.72-0.7,1.13,0.01,1.83c4.22,4.16,8.4,8.37,12.6,12.56c3.8,3.8,7.61,7.59,11.39,11.41
				c0.6,0.61,0.99,0.62,1.6,0.01c1.43-1.43,2.7-2.97,3.63-4.79c2.09-4.1,2.54-8.45,1.95-12.95c-0.08-0.66-0.14-1.21,0.58-1.59
				c1.9-1.01,3.85-1.91,5.93-2.48c4.76-1.3,9.46-1.07,14.11,0.58c1.34,0.48,2.45-0.04,2.88-1.23
				C147.86,63.36,147.31,62.26,146.03,61.78z"/>
		</g>
	</g>
</g>
</svg>
